<?xml version="1.0" encoding="UTF-8"?>
<svg xmlns="http://www.w3.org/2000/svg" viewBox="0 0 24 24" width="24" height="24">
  <path fill="#FFFFFF" d="M12 2C6.48 2 1.82 4.79 0 9l2.26 2.26C4.37 8.47 7.99 6.5 12 6.5s7.63 1.97 9.74 4.76L24 9c-1.82-4.21-6.48-7-12-7zm0 5c-3.35 0-6.32 1.57-8.25 4l2.26 2.26C7.36 11.88 9.57 11 12 11s4.64.88 5.99 2.26L20.25 11C18.32 8.57 15.35 7 12 7zm0 5c-1.83 0-3.45.88-4.5 2.25l2.26 2.26c.58-.69 1.38-1.01 2.24-1.01s1.66.32 2.24 1.01l2.26-2.26C15.45 12.88 13.83 12 12 12zm0 5c-.83 0-1.5.67-1.5 1.5S11.17 20 12 20s1.5-.67 1.5-1.5S12.83 17 12 17z"/>
</svg>
